<svg version="1.1" id="Layer_1" xmlns="http://www.w3.org/2000/svg" xmlns:xlink="http://www.w3.org/1999/xlink" x="0px" y="0px"
	 width="100%" viewBox="0 0 1024 1024" enable-background="new 0 0 1024 1024" xml:space="preserve">
<path fill="#000000" opacity="1.000000" stroke="none" 
	d="
M494.000000,719.212158 
	C458.171661,719.197571 422.839508,719.498230 387.516144,719.072449 
	C359.231659,718.731628 335.638000,707.394531 316.819275,686.282593 
	C306.665985,674.891968 299.361389,661.891968 296.373413,646.840759 
	C295.154541,640.700989 293.994934,634.517456 294.005341,628.117554 
	C294.122742,555.961121 294.150452,483.804291 294.060425,411.647766 
	C293.997589,361.284882 329.511139,325.756226 373.179321,319.623962 
	C377.162140,319.064697 381.090851,318.717316 385.078918,318.716858 
	C464.401062,318.707794 543.724487,318.437286 623.044739,318.821533 
	C658.744385,318.994446 691.585815,341.657166 705.293884,374.279388 
	C709.889099,385.214996 711.969360,396.510803 711.999878,408.275848 
	C712.025330,418.107727 712.040100,427.939667 712.037170,437.771576 
	C712.034424,447.196503 706.482788,453.023712 697.456970,453.114441 
	C688.283020,453.206696 682.010803,447.245972 681.848816,437.942383 
	C681.686401,428.613129 681.802307,419.278961 681.802856,409.946930 
	C681.804993,375.830139 654.401062,348.430878 620.165222,348.416840 
	C541.342773,348.384491 462.520355,348.389618 383.697937,348.386993 
	C354.936218,348.386047 328.893036,371.465790 325.136932,399.983643 
	C324.480072,404.970978 324.249115,409.915955 324.249359,414.907288 
	C324.252777,485.230896 324.202026,555.554565 324.312805,625.878052 
	C324.334717,639.787720 328.670898,652.322571 337.725098,663.131409 
	C340.830170,666.838135 343.334778,667.061401 347.174835,663.843201 
	C375.004150,640.520752 402.949951,617.336365 430.980652,594.256104 
	C436.577332,589.647827 442.090546,584.535034 450.234802,584.762085 
	C453.314331,584.847839 456.093689,585.373840 458.797485,586.938599 
	C480.432617,599.459839 501.198669,613.361511 522.282227,626.759155 
	C533.795532,634.075378 543.188416,633.900818 554.232422,625.856812 
	C565.157593,617.899353 574.737000,608.330261 584.916748,599.483459 
	C612.450256,575.555359 638.854004,550.378723 665.841919,525.846680 
	C667.042542,524.755249 668.557678,523.912537 669.107422,522.124084 
	C667.347290,520.245972 665.335022,521.206787 663.489563,521.511047 
	C655.985962,522.748230 648.404907,518.042236 647.001587,511.186279 
	C645.343628,503.086273 649.569763,496.120758 657.872864,494.511017 
	C669.599609,492.237579 681.442505,490.568420 693.220947,488.554260 
	C697.312195,487.854675 701.346558,486.828491 705.429077,486.071075 
	C716.312378,484.051910 724.122681,490.561523 724.146362,501.669800 
	C724.182922,518.833984 724.206299,535.998352 724.173157,553.162537 
	C724.159851,560.058960 720.508972,564.832275 713.617737,567.271118 
	C708.673767,569.020935 701.759277,566.648254 698.043030,561.953674 
	C696.312439,559.767578 695.603760,557.306152 695.635681,554.522766 
	C695.704102,548.559875 695.656677,542.595581 695.656677,535.447510 
	C691.058594,539.518127 687.226074,542.801941 683.513123,546.215637 
	C659.235840,568.536316 635.049500,590.952515 610.352173,612.816345 
	C596.139709,625.398193 582.653076,638.808289 567.770569,650.627014 
	C560.840088,656.130737 553.416992,660.927917 544.658142,663.152527 
	C536.979736,665.102661 529.709778,663.458252 522.889221,660.051941 
	C509.438202,653.334167 497.503937,644.135498 484.806091,636.179810 
	C476.340057,630.875366 468.142761,625.143860 459.725891,619.758606 
	C451.607025,614.563965 447.384705,614.816650 439.909180,621.094055 
	C428.176208,630.946716 416.614655,641.003174 404.917175,650.898438 
	C393.475769,660.577148 381.957489,670.164917 370.466064,679.784302 
	C369.104034,680.924438 367.421692,681.778137 366.834717,683.934570 
	C373.089813,687.953735 380.156433,688.724487 386.988037,688.741699 
	C460.977264,688.928223 534.970642,689.258301 608.955078,688.632751 
	C636.886963,688.396545 660.365906,671.627502 669.355713,645.739746 
	C671.663269,639.094666 672.635986,632.176331 672.748962,625.153748 
	C672.869568,617.657166 672.693604,610.150696 673.008118,602.663696 
	C673.377258,593.876221 679.760925,588.489502 689.089050,588.660828 
	C696.896973,588.804199 703.331055,595.085938 703.164246,603.177734 
	C702.866638,617.612793 704.535461,632.095215 701.061218,646.454407 
	C692.159485,683.245056 661.540894,711.507202 624.311707,717.643250 
	C616.488708,718.932617 608.771851,719.167114 600.980774,719.185364 
	C565.487366,719.268677 529.993591,719.217041 494.000000,719.212158 
z"/>
<path fill="#000000" opacity="1.000000" stroke="none" 
	d="
M619.863953,551.878174 
	C602.930664,566.963806 586.255859,581.805359 569.658752,596.577881 
	C567.246460,594.613220 567.867126,592.647583 567.865356,590.908325 
	C567.806641,533.091797 567.772278,475.275299 567.762390,417.458771 
	C567.760437,406.116028 573.265015,400.693817 584.625305,400.679382 
	C594.789001,400.666443 604.953186,400.591492 615.116333,400.658386 
	C626.071655,400.730499 631.263550,406.018188 631.306274,417.030029 
	C631.451111,454.309021 631.345276,491.591278 631.862366,528.864990 
	C632.003113,539.015869 627.881226,546.028137 619.863953,551.878174 
z"/>
<path fill="#000000" opacity="1.000000" stroke="none" 
	d="
M532.760010,619.618103 
	C519.773438,613.329590 508.690887,604.718567 496.879211,597.271301 
	C495.050323,596.118164 493.252411,594.913330 491.472687,593.685242 
	C486.461609,590.227478 483.784882,585.438660 483.777557,579.351379 
	C483.734070,543.226196 483.712219,507.100983 483.765778,470.975922 
	C483.779053,462.011932 489.934265,455.331360 498.969940,455.079559 
	C510.278320,454.764465 521.622131,454.740112 532.919006,455.268127 
	C544.616577,455.814941 549.975769,461.884521 549.974609,473.568054 
	C549.970520,517.013000 549.917969,560.457947 549.868652,603.902893 
	C549.856995,614.139893 543.065002,620.536072 532.760010,619.618103 
z"/>
<path fill="#000000" opacity="1.000000" stroke="none" 
	d="
M433.764282,579.717163 
	C422.729919,588.402771 411.987000,596.869690 401.289246,605.301025 
	C399.161713,603.142212 399.713531,601.213745 399.709717,599.467224 
	C399.654510,574.135010 399.630707,548.802673 399.639893,523.470398 
	C399.643372,513.932312 405.167664,508.082672 414.630768,507.952698 
	C426.627747,507.787903 438.630493,507.809875 450.627716,507.973389 
	C459.137970,508.089325 464.766449,513.328613 465.032837,522.657471 
	C465.522583,539.809387 465.230743,556.983765 465.254333,574.148743 
	C465.258636,577.278442 463.694672,577.569763 460.980469,576.859863 
	C451.718323,574.436951 442.563873,573.882568 433.764282,579.717163 
z"/>
</svg>